HIERARCHY
ROOT Hips
{
    OFFSET 0.000000 0.000000 0.000000
    CHANNELS 6 Xposition Yposition Zposition Zrotation Xrotation Yrotation
    JOINT Spine
    {
        OFFSET -0.000000 8.603107 0.000000
        CHANNELS 3 Zrotation Xrotation Yrotation
        JOINT Spine1
        {
            OFFSET -0.000000 23.906662 0.000000
            CHANNELS 3 Zrotation Xrotation Yrotation
            JOINT Neck
            {
                OFFSET -0.000000 23.808481 2.164407
                CHANNELS 3 Zrotation Xrotation Yrotation
                JOINT Head
                {
                    OFFSET -0.000000 14.688231 -2.098319
                    CHANNELS 3 Zrotation Xrotation Yrotation
                    End Site
                    {
                        OFFSET -0.000000 26.228985 0.000000
                    }
                }
            }
            JOINT LeftShoulder
            {
                OFFSET 4.178941 22.658146 -0.129871
                CHANNELS 3 Zrotation Xrotation Yrotation
                JOINT LeftArm
                {
                    OFFSET 9.497952 0.000000 0.000000
                    CHANNELS 3 Zrotation Xrotation Yrotation
                    JOINT LeftForeArm
                    {
                        OFFSET 38.855015 0.000000 0.000000
                        CHANNELS 3 Zrotation Xrotation Yrotation
                        JOINT LeftHand
                        {
                            OFFSET 24.940550 0.000000 0.000000
                            CHANNELS 3 Zrotation Xrotation Yrotation
                            End Site
                            {
                                OFFSET 15.737392 0.000000 0.000000
                            }
                        }
                    }
                }
            }
            JOINT RightShoulder
            {
                OFFSET -4.145384 22.658146 -0.129871
                CHANNELS 3 Zrotation Xrotation Yrotation
                JOINT RightArm
                {
                    OFFSET -9.497952 0.000000 0.000000
                    CHANNELS 3 Zrotation Xrotation Yrotation
                    JOINT RightForeArm
                    {
                        OFFSET -38.855015 0.000000 0.000000
                        CHANNELS 3 Zrotation Xrotation Yrotation
                        JOINT RightHand
                        {
                            OFFSET -24.940550 0.000000 0.000000
                            CHANNELS 3 Zrotation Xrotation Yrotation
                            End Site
                            {
                                OFFSET -15.737392 0.000000 0.000000
                            }
                        }
                    }
                }
            }
        }
    }
    JOINT LeftUpLeg
    {
        OFFSET 10.491594 0.000000 0.000000
        CHANNELS 3 Zrotation Xrotation Yrotation
        JOINT LeftLeg
        {
            OFFSET -0.000000 -46.080647 0.000000
            CHANNELS 3 Zrotation Xrotation Yrotation
            JOINT LeftFoot
            {
                OFFSET -0.000000 -50.184704 0.000000
                CHANNELS 3 Zrotation Xrotation Yrotation
                JOINT LeftToeBase
                {
                    OFFSET -0.000000 -6.819536 15.737392
                    CHANNELS 3 Zrotation Xrotation Yrotation
                    End Site
                    {
                        OFFSET -0.000000 0.000000 4.196638
                    }
                }
            }
        }
    }
    JOINT RightUpLeg
    {
        OFFSET -10.491594 0.000000 0.000000
        CHANNELS 3 Zrotation Xrotation Yrotation
        JOINT RightLeg
        {
            OFFSET -0.000000 -46.080647 0.000000
            CHANNELS 3 Zrotation Xrotation Yrotation
            JOINT RightFoot
            {
                OFFSET -0.000000 -50.184704 0.000000
                CHANNELS 3 Zrotation Xrotation Yrotation
                JOINT RightToeBase
                {
                    OFFSET -0.000000 -6.819536 15.737392
                    CHANNELS 3 Zrotation Xrotation Yrotation
                    End Site
                    {
                        OFFSET -0.000000 0.000000 4.196638
                    }
                }
            }
        }
    }
}
MOTION
Frames:    11
Frame Time:    0.008333
-7.603125    102.973518    41.709503    -2.074255    0.072245    92.342758    -2.400806    -9.488562    -0.912907    4.910336    2.492732    -0.820594    -1.184761    14.263602    2.342239    1.107932    -0.748520    2.625222    3.806601    -3.883669    -9.882023    -11.739317    -18.749689    -1.012429    43.848530    -34.113014    -74.157417    24.373333    0.309911    2.993998    3.725587    13.166775    -8.008244    35.950684    59.525948    36.080154    0.881260    -15.180595    17.189873    6.065578    -15.271890    0.731327    0.076171    -1.081925    0.217453    -2.963641    9.943718    0.536284    1.785795    -10.376802    14.427459    0.000000    0.000000    0.000000    -0.016335    2.884130    -2.258017    2.516056    1.047603    -0.773939    -2.187261    -5.835855    -11.295216    0.000000    0.000000    0.000000    
-7.604626    102.977562    41.717644    -2.072980    0.081947    92.324371    -2.361571    -9.491754    -0.926721    4.883737    2.468393    -0.835884    -1.333967    14.275564    2.298068    1.487662    -0.788367    2.639078    3.962861    -4.036029    -9.824929    -11.751295    -19.214516    -1.179859    42.512081    -33.182499    -72.732941    23.315895    -0.555668    4.302358    3.722555    13.161833    -7.983715    36.024658    59.504250    35.995800    0.844675    -15.116385    17.193443    6.248214    -15.193448    0.879906    0.066661    -1.072841    0.223818    -2.957270    9.929568    0.547057    1.766340    -10.359527    14.428027    0.000000    0.000000    0.000000    -0.027901    2.890480    -2.247756    2.524508    1.032693    -0.776937    -2.184826    -5.817297    -11.269626    0.000000    0.000000    0.000000    
-7.600416    102.982475    41.728073    -2.063274    0.088332    92.331322    -2.338100    -9.485366    -0.949852    4.879841    2.424798    -0.859177    -1.258005    14.261752    2.302229    1.490570    -0.709846    2.641569    4.035834    -4.096647    -9.785490    -11.644356    -19.823441    -1.330056    40.870022    -32.230221    -71.427643    22.203724    -1.439469    5.996727    3.728017    13.136165    -7.949884    36.152641    59.494370    35.830696    0.825725    -15.036880    17.229197    6.285311    -15.112078    0.863108    0.067282    -1.052842    0.196404    -2.961496    9.914504    0.554526    1.727502    -10.351624    14.438284    0.000000    0.000000    0.000000    -0.028188    2.922511    -2.190357    2.527936    0.993384    -0.828157    -2.182132    -5.792780    -11.282011    0.000000    0.000000    0.000000    
-7.596400    102.985596    41.738346    -2.055503    0.095045    92.340988    -2.311937    -9.485499    -0.973648    4.878644    2.382418    -0.883301    -1.223433    14.310290    2.306041    1.540507    -0.746490    2.652220    4.113918    -4.177557    -9.762281    -11.540574    -20.389454    -1.531045    39.259449    -31.357061    -69.853752    20.861883    -2.461546    7.794926    3.761868    13.088402    -7.972620    36.166634    59.537079    35.763760    0.802886    -14.964184    17.219866    6.381163    -15.033817    0.890541    0.068869    -1.038034    0.180540    -2.966451    9.897073    0.570125    1.705172    -10.335517    14.429132    0.000000    0.000000    0.000000    -0.029407    2.943967    -2.171446    2.528862    0.972427    -0.846736    -2.181685    -5.771777    -11.278052    0.000000    0.000000    0.000000    
-7.592057    102.989670    41.748489    -2.043591    0.100684    92.358421    -2.239440    -9.423149    -1.025612    4.804482    2.211151    -0.933801    -0.957876    14.359300    2.393555    1.191867    -0.673633    2.685263    4.165664    -4.053867    -9.801994    -11.290878    -20.942247    -1.560684    37.739704    -30.570265    -68.192596    19.482576    -3.430255    9.882026    3.789174    13.228292    -7.767454    36.412632    59.411182    35.490353    0.726777    -14.915676    17.205147    6.499541    -14.972534    0.902961    0.066960    -1.025278    0.177428    -2.959078    9.897809    0.574931    1.678609    -10.323931    14.407030    0.000000    0.000000    0.000000    -0.026846    2.966527    -2.174727    2.526307    0.959689    -0.847532    -2.185495    -5.762949    -11.287089    0.000000    0.000000    0.000000    
-7.558594    102.993416    41.783501    -1.976869    0.050365    92.489990    -2.262578    -9.408228    -1.086888    4.907523    2.208702    -0.995320    -0.735797    14.513458    2.316326    0.973739    -0.939497    2.569668    4.236121    -4.192353    -9.754842    -11.182413    -21.261145    -1.849481    35.953873    -29.876204    -66.549255    18.589350    -4.550592    12.157725    3.836587    13.204382    -7.825768    36.408360    59.458324    35.391369    0.703669    -14.946650    17.259642    6.513674    -14.998167    0.942579    0.156690    -0.961039    0.117279    -2.982204    9.908353    0.504652    1.697023    -10.337717    14.413377    0.000000    0.000000    0.000000    0.074801    3.105398    -2.214840    2.494800    0.875418    -0.910849    -2.147284    -5.701115    -11.318576    0.000000    0.000000    0.000000    
-7.537100    102.991745    41.785542    -2.030493    -0.029875    92.631310    -2.217649    -9.549396    -1.122258    5.002735    2.252696    -1.035478    -0.788225    14.487194    2.260393    1.216390    -0.930465    2.548990    4.334288    -4.301111    -9.923448    -11.083324    -21.763067    -1.939423    34.280140    -29.067450    -64.711716    17.374136    -5.543705    14.126817    3.895903    13.162928    -7.966456    36.314503    59.526134    35.320343    0.711769    -15.042593    17.429386    6.473286    -15.105026    0.788769    0.230977    -1.028119    -0.010115    -2.976011    9.926994    0.490869    1.728522    -10.376281    14.419683    0.000000    0.000000    0.000000    0.160291    3.102168    -2.327065    2.497140    0.823327    -0.885168    -2.088882    -5.652222    -11.362501    0.000000    0.000000    0.000000    
-7.519180    102.997444    41.803032    -1.971043    -0.029174    92.650024    -2.243690    -9.485503    -1.129314    5.094436    2.153912    -1.038993    -0.759267    14.553410    2.221483    1.311170    -0.957913    2.522133    4.387160    -4.335618    -10.009149    -10.850882    -22.501770    -2.103001    32.194229    -28.138582    -63.058846    16.514898    -6.461722    16.190454    3.940686    13.201200    -7.997010    36.324608    59.512955    35.203228    0.748051    -15.080637    17.494492    6.499707    -15.148749    0.787448    0.251702    -0.954664    0.016385    -2.987997    9.914963    0.464184    1.713547    -10.362353    14.406279    0.000000    0.000000    0.000000    0.182419    3.165537    -2.366610    2.480165    0.839400    -0.868137    -2.093858    -5.646945    -11.352350    0.000000    0.000000    0.000000    
-7.496861    103.005196    41.813805    -1.879536    -0.012792    92.667725    -2.256471    -9.394622    -1.136011    5.148487    2.066186    -1.043538    -1.116769    14.567534    2.153066    2.078799    -0.951348    2.572304    4.475843    -4.377312    -10.089659    -10.613251    -23.419678    -2.235591    30.086960    -27.174570    -61.328087    14.982903    -7.459539    17.789944    3.985998    13.239347    -8.005116    36.380123    59.467968    35.081772    0.740597    -15.070205    17.449209    6.716609    -15.127655    0.925673    0.250705    -0.841025    0.038721    -2.990090    9.889790    0.422618    1.663665    -10.338778    14.414116    0.000000    0.000000    0.000000    0.181686    3.288398    -2.253454    2.478660    0.801416    -0.963410    -2.090281    -5.613650    -11.393888    0.000000    0.000000    0.000000    
-7.493446    103.006104    41.819679    -1.859790    -0.005947    92.706169    -2.190994    -9.349115    -1.182539    5.089415    1.942222    -1.089698    -0.589651    14.663912    2.182045    1.331731    -0.984339    2.481175    4.570330    -4.492091    -10.107140    -10.376772    -24.161879    -2.293340    28.242140    -26.347969    -59.397423    12.787953    -8.633654    18.639490    4.013953    13.238957    -7.888731    36.634621    59.444542    34.773174    0.760241    -15.088834    17.485327    6.642942    -15.150661    0.914049    0.248918    -0.829288    0.047076    -2.988850    9.902213    0.425785    1.677116    -10.329541    14.374580    0.000000    0.000000    0.000000    0.182585    3.297995    -2.337261    2.474179    0.835182    -0.906465    -2.087905    -5.635067    -11.402246    0.000000    0.000000    0.000000    
-7.487971    103.006432    41.828156    -1.829011    -0.014122    92.760956    -2.142897    -9.326655    -1.214915    5.065787    1.895964    -1.123972    -0.462907    14.643739    2.160831    1.290868    -0.925873    2.450481    4.722587    -4.545279    -10.142791    -10.298875    -24.814590    -2.370129    26.962681    -25.716246    -57.144062    10.118617    -9.814015    19.231665    4.070251    13.238463    -7.852966    36.722069    59.436539    34.601002    0.768761    -15.138725    17.595821    6.610050    -15.211189    0.763451    0.265396    -0.808240    0.042211    -2.983419    9.917679    0.384578    1.644299    -10.341263    14.362103    0.000000    0.000000    0.000000    0.200494    3.332684    -2.345068    2.472691    0.844407    -0.905152    -2.082719    -5.637502    -11.446388    0.000000    0.000000    0.000000    
